<svg width="232" height="22" viewBox="0 0 232 22" fill="none" xmlns="http://www.w3.org/2000/svg">
<path d="M10.5082 5.11758C7.52695 5.11758 5.12226 7.52227 5.12226 10.5035C5.12226 13.4848 7.52695 15.8895 10.5082 15.8895C13.4895 15.8895 15.8941 13.4848 15.8941 10.5035C15.8941 7.52227 13.4895 5.11758 10.5082 5.11758ZM10.5082 14.0051C8.58164 14.0051 7.00664 12.4348 7.00664 10.5035C7.00664 8.57227 8.57695 7.00195 10.5082 7.00195C12.4395 7.00195 14.0098 8.57227 14.0098 10.5035C14.0098 12.4348 12.4348 14.0051 10.5082 14.0051ZM17.3707 4.89727C17.3707 5.5957 16.8082 6.15352 16.1145 6.15352C15.416 6.15352 14.8582 5.59102 14.8582 4.89727C14.8582 4.20352 15.4207 3.64102 16.1145 3.64102C16.8082 3.64102 17.3707 4.20352 17.3707 4.89727ZM20.9379 6.17227C20.8582 4.48945 20.4738 2.99883 19.241 1.7707C18.0129 0.542578 16.5223 0.158203 14.8395 0.0738281C13.1051 -0.0246094 7.90664 -0.0246094 6.17227 0.0738281C4.49414 0.153516 3.00352 0.537891 1.7707 1.76602C0.537891 2.99414 0.158203 4.48477 0.0738281 6.16758C-0.0246094 7.90195 -0.0246094 13.1004 0.0738281 14.8348C0.153516 16.5176 0.537891 18.0082 1.7707 19.2363C3.00352 20.4645 4.48945 20.8488 6.17227 20.9332C7.90664 21.0316 13.1051 21.0316 14.8395 20.9332C16.5223 20.8535 18.0129 20.4691 19.241 19.2363C20.4691 18.0082 20.8535 16.5176 20.9379 14.8348C21.0363 13.1004 21.0363 7.90664 20.9379 6.17227ZM18.6973 16.6957C18.3316 17.6145 17.6238 18.3223 16.7004 18.6926C15.3176 19.241 12.0363 19.1145 10.5082 19.1145C8.98008 19.1145 5.69414 19.2363 4.31602 18.6926C3.39727 18.327 2.68945 17.6191 2.31914 16.6957C1.7707 15.3129 1.89727 12.0316 1.89727 10.5035C1.89727 8.97539 1.77539 5.68945 2.31914 4.31133C2.68477 3.39258 3.39258 2.68477 4.31602 2.31445C5.69883 1.76602 8.98008 1.89258 10.5082 1.89258C12.0363 1.89258 15.3223 1.7707 16.7004 2.31445C17.6191 2.68008 18.327 3.38789 18.6973 4.31133C19.2457 5.69414 19.1191 8.97539 19.1191 10.5035C19.1191 12.0316 19.2457 15.3176 18.6973 16.6957Z" fill="white"/>
<path d="M229.512 0H211.507C210.682 0 210.012 0.679688 210.012 1.51406V19.4859C210.012 20.3203 210.682 21 211.507 21H229.512C230.337 21 231.012 20.3203 231.012 19.4859V1.51406C231.012 0.679688 230.337 0 229.512 0ZM216.358 18H213.246V7.97812H216.363V18H216.358ZM214.802 6.60938C213.804 6.60938 212.998 5.79844 212.998 4.80469C212.998 3.81094 213.804 3 214.802 3C215.796 3 216.607 3.81094 216.607 4.80469C216.607 5.80312 215.801 6.60938 214.802 6.60938ZM228.026 18H224.913V13.125C224.913 11.9625 224.89 10.4672 223.296 10.4672C221.674 10.4672 221.426 11.7328 221.426 13.0406V18H218.313V7.97812H221.299V9.34687H221.341C221.758 8.55937 222.776 7.72969 224.29 7.72969C227.44 7.72969 228.026 9.80625 228.026 12.5062V18Z" fill="white"/>
<path d="M159.762 0H143.262C142.665 0 142.093 0.237053 141.671 0.65901C141.249 1.08097 141.012 1.65326 141.012 2.25V18.75C141.012 19.3467 141.249 19.919 141.671 20.341C142.093 20.7629 142.665 21 143.262 21H149.695V13.8605H146.742V10.5H149.695V7.93875C149.695 5.02547 151.43 3.41625 154.086 3.41625C155.358 3.41625 156.688 3.64313 156.688 3.64313V6.5025H155.223C153.778 6.5025 153.328 7.39875 153.328 8.31797V10.5H156.552L156.036 13.8605H153.328V21H159.762C160.358 21 160.931 20.7629 161.353 20.341C161.775 19.919 162.012 19.3467 162.012 18.75V2.25C162.012 1.65326 161.775 1.08097 161.353 0.65901C160.931 0.237053 160.358 0 159.762 0Z" fill="white"/>
<path d="M90.5447 5.85784C90.5599 6.07103 90.5599 6.28427 90.5599 6.49745C90.5599 13 85.6107 20.4924 76.565 20.4924C73.7782 20.4924 71.1894 19.6852 69.0117 18.2843C69.4077 18.3299 69.7883 18.3452 70.1995 18.3452C72.499 18.3452 74.6158 17.5685 76.3061 16.2437C74.1437 16.198 72.3315 14.7817 71.7071 12.8325C72.0117 12.8781 72.3163 12.9086 72.6361 12.9086C73.0777 12.9086 73.5194 12.8477 73.9305 12.7411C71.6767 12.2842 69.9863 10.3045 69.9863 7.91369V7.8528C70.6411 8.21828 71.4026 8.4467 72.2096 8.47712C70.8847 7.59386 70.0168 6.08627 70.0168 4.38067C70.0168 3.46698 70.2604 2.62942 70.6868 1.89845C73.1081 4.88322 76.7477 6.83242 80.8289 7.04566C80.7528 6.68017 80.7071 6.2995 80.7071 5.91878C80.7071 3.20809 82.9 1 85.6259 1C87.0421 1 88.3213 1.59391 89.2198 2.5533C90.3314 2.34011 91.3974 1.92892 92.3416 1.36548C91.9761 2.50764 91.1994 3.46703 90.1792 4.07613C91.169 3.96958 92.1284 3.69541 93.0116 3.31473C92.3417 4.28931 91.5041 5.1573 90.5447 5.85784Z" fill="white"/>
</svg>
